<svg width="617" height="648" viewBox="0 0 617 648" fill="none" xmlns="http://www.w3.org/2000/svg">
<path d="M350.433 497.949C349.239 498.859 348.096 499.973 346.72 500.588L340.259 489.613C340.696 489.175 341.697 489.027 341.697 488.284C341.697 487.744 341.082 486.661 340.823 486.173C339.515 483.702 337.05 482.222 334.671 480.931C332.208 479.594 330.804 477.108 327.918 476.18C322.137 474.322 315.986 472.989 309.935 472.412C303.388 471.789 296.578 470.208 290.551 467.571C285.327 465.285 280.708 462.031 276.281 458.47C273.229 456.015 270.55 453.085 267.544 450.625L275.116 441.688C278.869 445.381 283.463 448.028 287.675 451.117C295.66 456.972 305.745 459.318 315.086 462.074C320.508 463.674 326.065 465.244 331.576 466.497C337.237 467.783 343.709 469.279 348.722 472.339C351.543 474.062 355.333 477.308 356.294 480.603C357.031 483.13 356.467 486.406 356.167 488.957C355.868 491.491 355.1 493.617 353.455 495.674C352.712 496.602 351.381 497.227 350.433 497.949Z" fill="#F8E3C5" stroke="#75532C" stroke-width="2" stroke-linecap="round" stroke-linejoin="round"/>
<path d="M290.077 351.664C301.454 355.059 313.502 355.976 325.206 357.744L330.193 373.47C328.425 372.173 325.75 371.143 323.732 370.211C321.802 369.321 320.027 368.557 317.926 368.155C315.123 367.618 312.145 367.794 309.298 367.499C304.264 366.979 299.185 366.303 294.337 364.806C290.106 363.499 286.061 362.351 281.96 360.692C278.614 359.339 275.113 358.536 272.003 356.615C269.886 355.307 267.675 354.453 265.888 352.665C264.25 351.027 262.976 349.17 261.392 347.514L277.318 346.404C280.543 349.629 285.918 350.423 290.077 351.664Z" fill="#F8E3C5" stroke="#75532C" stroke-width="2" stroke-linecap="round" stroke-linejoin="round"/>
<path d="M354.619 294.439C357.176 296.073 361.922 299.649 362.046 303.103L334.161 300.737C331.676 300.382 329.309 299.569 326.844 299.099C324.062 298.567 321.233 298.683 318.472 297.952C314.486 296.897 310.424 296.831 306.404 296.132C302.303 295.419 297.992 293.59 293.827 293.529C287.23 293.432 280.704 293.802 274.133 294.366C267.422 294.943 262.731 295.32 256 295.537C254.572 295.823 251.833 299.113 250.977 300.165C250.44 300.825 249.95 301.485 249.546 302.235C249.455 302.404 249.5 302.947 249.222 302.676C246.681 300.208 245.805 297.056 243.5 294.366C242.335 293.007 242.135 291.756 241.152 290.253C241.598 288.914 245.192 287.539 246.467 286.977C253.915 283.688 261.686 282.717 269.728 282.717C284.03 282.717 298.087 283.659 312.283 285.502C322.642 286.847 333.149 287.404 343.225 290.326C347.086 291.445 351.197 292.252 354.619 294.439Z" fill="#F8E3C5" stroke="#75532C" stroke-width="2" stroke-linecap="round" stroke-linejoin="round"/>
<path d="M317.736 219.562C350.254 224.738 414.26 225.072 431.354 196.599C448.448 168.127 543.889 162.595 589.473 163.389C584.193 176.866 570.616 205.519 558.545 212.313C554.57 214.55 545.523 215.954 534.178 216.785C531.556 222.512 524.642 235.052 517.966 239.394C515.437 241.038 504.801 240.673 490.891 239.291C488.514 244.609 482.192 256.227 475.926 260.161C472.929 262.043 455.333 258.304 434.042 252.708C425.136 258.692 404.739 270.21 394.398 268.413C384.056 266.615 334.78 244.389 311.434 233.501L317.736 219.562Z" fill="url(#paint0_linear_159_209)"/>
<path d="M534.178 216.785C545.523 215.954 554.57 214.55 558.545 212.313C570.616 205.519 584.193 176.866 589.473 163.389C543.889 162.595 448.448 168.127 431.354 196.599C414.26 225.072 350.254 224.738 317.736 219.562L311.434 233.501C334.78 244.389 384.056 266.615 394.398 268.413C404.739 270.21 425.136 258.692 434.042 252.708M534.178 216.785C511.069 218.478 478.426 217.793 459.701 216.926L534.178 216.785ZM534.178 216.785C531.556 222.512 524.642 235.052 517.966 239.394C515.437 241.038 504.801 240.673 490.891 239.291M490.891 239.291C468.076 237.026 436.453 232.029 417.344 228.688L490.891 239.291ZM490.891 239.291C488.514 244.609 482.192 256.227 475.926 260.161C472.929 262.043 455.333 258.304 434.042 252.708M434.042 252.708C410.824 246.606 383.212 238.295 365.345 232.658L434.042 252.708Z" stroke="#787878" stroke-width="2" stroke-linejoin="round"/>
<path d="M315.14 235.72C347.664 230.583 408.634 211.099 416.081 178.735C423.528 146.372 512.576 111.586 556.169 98.2383C555.318 112.688 551.271 144.136 541.894 154.33C538.806 157.687 530.637 161.821 520.105 166.121C519.384 172.379 516.689 186.443 511.683 192.637C509.787 194.983 499.56 197.925 485.905 200.915C485.289 206.707 482.871 219.711 478.13 225.391C475.862 228.107 457.973 229.995 435.995 231.26C429.377 239.706 413.544 256.969 403.153 258.459C392.763 259.948 339.028 254.057 313.459 250.925L315.14 235.72Z" fill="url(#paint1_linear_159_209)"/>
<path d="M520.105 166.121C530.637 161.821 538.806 157.687 541.894 154.33C551.271 144.136 555.318 112.688 556.169 98.2383C512.576 111.586 423.528 146.372 416.081 178.735C408.634 211.099 347.664 230.583 315.14 235.72L313.459 250.925C339.028 254.057 392.763 259.948 403.153 258.459C413.544 256.969 429.377 239.706 435.995 231.26M520.105 166.121C498.654 174.88 467.4 184.327 449.325 189.295L520.105 166.121ZM520.105 166.121C519.384 172.379 516.689 186.443 511.683 192.637C509.787 194.983 499.56 197.925 485.905 200.915M485.905 200.915C463.508 205.819 431.89 210.849 412.685 213.584L485.905 200.915ZM485.905 200.915C485.289 206.707 482.871 219.711 478.13 225.391C475.862 228.107 457.973 229.995 435.995 231.26M435.995 231.26C412.028 232.64 383.199 233.279 364.465 233.445L435.995 231.26Z" stroke="#787878" stroke-width="2" stroke-linejoin="round"/>
<path d="M310.482 233.224C341.097 221.103 396.336 188.767 396.531 155.558C396.725 122.349 476.02 68.9447 515.643 46.3937C517.97 60.6802 520.893 92.2525 513.97 104.25C511.69 108.2 504.622 114.02 495.284 120.517C495.948 126.781 496.391 141.094 492.86 148.232C491.522 150.936 482.185 156.042 469.514 161.943C470.178 167.73 470.661 180.948 467.276 187.526C465.656 190.673 448.612 196.424 427.442 202.462C422.829 212.149 411.151 232.455 401.337 236.18C391.523 239.904 337.8 245.897 312.165 248.428L310.482 233.224Z" fill="url(#paint2_linear_159_209)"/>
<path d="M495.284 120.517C504.622 114.02 511.69 108.2 513.97 104.25C520.893 92.2525 517.97 60.6802 515.643 46.3937C476.02 68.9447 396.725 122.349 396.531 155.558C396.336 188.767 341.097 221.103 310.482 233.224L312.165 248.428C337.8 245.897 391.523 239.904 401.337 236.18C411.151 232.455 422.829 212.149 427.442 202.462M495.284 120.517C476.265 133.752 447.832 149.8 431.279 158.598L495.284 120.517ZM495.284 120.517C495.948 126.781 496.391 141.094 492.86 148.232C491.522 150.936 482.185 156.042 469.514 161.943M469.514 161.943C448.73 171.623 418.975 183.441 400.833 190.306L469.514 161.943ZM469.514 161.943C470.178 167.73 470.661 180.948 467.276 187.526C465.656 190.673 448.612 196.424 427.442 202.462M427.442 202.462C404.355 209.045 376.363 215.969 358.118 220.225L427.442 202.462Z" stroke="#787878" stroke-width="2" stroke-linejoin="round"/>
<path d="M300.534 219.599C268.016 224.775 204.01 225.109 186.916 196.637C169.822 168.164 74.3811 162.633 28.7972 163.426C34.0769 176.903 47.6541 205.557 59.7253 212.35C63.7001 214.587 72.7474 215.991 84.0924 216.822C86.7145 222.55 93.6278 235.09 100.305 239.431C102.833 241.076 113.469 240.71 127.379 239.329C129.756 244.646 136.078 256.265 142.344 260.199C145.341 262.08 162.937 258.341 184.228 252.746C193.134 258.729 213.531 270.248 223.873 268.45C234.214 266.652 283.49 244.426 306.836 233.538L300.534 219.599Z" fill="url(#paint3_linear_159_209)"/>
<path d="M84.0924 216.822C72.7474 215.991 63.7001 214.587 59.7253 212.35C47.6541 205.557 34.0769 176.903 28.7972 163.426C74.3811 162.633 169.822 168.164 186.916 196.637C204.01 225.109 268.016 224.775 300.534 219.599L306.836 233.538C283.49 244.426 234.214 266.652 223.873 268.45C213.531 270.248 193.134 258.729 184.228 252.746M84.0924 216.822C107.201 218.515 139.844 217.83 158.569 216.963L84.0924 216.822ZM84.0924 216.822C86.7145 222.55 93.6278 235.09 100.305 239.431C102.833 241.076 113.469 240.71 127.379 239.329M127.379 239.329C150.194 237.063 181.817 232.066 200.926 228.725L127.379 239.329ZM127.379 239.329C129.757 244.646 136.078 256.265 142.344 260.199C145.341 262.08 162.937 258.341 184.228 252.746M184.228 252.746C207.446 246.643 235.059 238.332 252.925 232.695L184.228 252.746Z" stroke="#787878" stroke-width="2" stroke-linejoin="round"/>
<path d="M303.13 235.758C270.606 230.62 209.636 211.137 202.189 178.773C194.742 146.409 105.694 111.623 62.1007 98.2758C62.9521 112.725 66.9991 144.173 76.3766 154.368C79.4644 157.725 87.6335 161.859 98.1648 166.159C98.8865 172.416 101.581 186.48 106.587 192.674C108.484 195.02 118.711 197.963 132.365 200.952C132.981 206.745 135.399 219.749 140.14 225.428C142.408 228.145 160.297 230.032 182.275 231.298C188.893 239.743 204.726 257.006 215.117 258.496C225.507 259.986 279.242 254.094 304.811 250.962L303.13 235.758Z" fill="url(#paint4_linear_159_209)"/>
<path d="M98.1648 166.159C87.6335 161.859 79.4644 157.725 76.3766 154.368C66.9992 144.173 62.9521 112.725 62.1007 98.2758C105.694 111.623 194.742 146.409 202.189 178.773C209.636 211.137 270.606 230.62 303.13 235.758L304.811 250.962C279.242 254.094 225.507 259.986 215.117 258.496C204.726 257.006 188.893 239.743 182.275 231.298M98.1648 166.159C119.617 174.918 150.87 184.365 168.945 189.333L98.1648 166.159ZM98.1648 166.159C98.8865 172.416 101.581 186.48 106.587 192.674C108.484 195.02 118.711 197.963 132.365 200.952M132.365 200.952C154.762 205.856 186.38 210.887 205.585 213.621L132.365 200.952ZM132.365 200.952C132.981 206.744 135.399 219.749 140.14 225.428C142.408 228.145 160.297 230.032 182.275 231.298M182.275 231.298C206.242 232.677 235.071 233.316 253.805 233.483L182.275 231.298Z" stroke="#787878" stroke-width="2" stroke-linejoin="round"/>
<path d="M307.788 233.261C277.173 221.141 221.934 188.805 221.739 155.596C221.545 122.386 142.25 68.9822 102.627 46.4312C100.301 60.7176 97.3776 92.2899 104.301 104.287C106.58 108.238 113.648 114.057 122.986 120.555C122.322 126.819 121.879 141.131 125.41 148.269C126.748 150.973 136.085 156.079 148.756 161.981C148.092 167.768 147.609 180.986 150.995 187.564C152.614 190.71 169.658 196.462 190.828 202.499C195.441 212.187 207.119 232.493 216.933 236.217C226.747 239.941 280.47 245.935 306.105 248.466L307.788 233.261Z" fill="url(#paint5_linear_159_209)"/>
<path d="M122.986 120.555C113.648 114.057 106.58 108.238 104.301 104.287C97.3776 92.2899 100.301 60.7176 102.627 46.4312C142.25 68.9822 221.545 122.386 221.739 155.596C221.934 188.805 277.173 221.141 307.788 233.261L306.105 248.466C280.47 245.935 226.747 239.941 216.933 236.217C207.119 232.493 195.441 212.187 190.828 202.499M122.986 120.555C142.005 133.789 170.438 149.838 186.991 158.636L122.986 120.555ZM122.986 120.555C122.322 126.819 121.879 141.131 125.41 148.269C126.748 150.973 136.085 156.079 148.756 161.981M148.756 161.981C169.54 171.66 199.295 183.479 217.438 190.344L148.756 161.981ZM148.756 161.981C148.092 167.768 147.609 180.986 150.995 187.564C152.614 190.71 169.658 196.462 190.828 202.499M190.828 202.499C213.915 209.083 241.907 216.006 260.152 220.262L190.828 202.499Z" stroke="#787878" stroke-width="2" stroke-linejoin="round"/>
<path d="M347 204.287C328.5 201.287 290.5 201.287 272 204.287L307.5 234.787L347 204.287Z" fill="url(#paint6_linear_159_209)" stroke="#A08800" stroke-width="2" stroke-linejoin="round"/>
<path d="M298.833 617.275C310.588 279.933 295.118 227.055 272 204.287C300.304 215.287 322.172 214.787 347 204.287C323.44 226.59 307.11 279.765 312.24 617.275H298.833Z" fill="url(#paint7_linear_159_209)" stroke="#A08800" stroke-width="2" stroke-linejoin="round"/>
<path d="M439.478 505.502C442.5 499.537 445.32 495.549 445 492.041C441.412 492.393 435.096 496.414 432.04 498.037C427.8 500.29 427.647 501.062 423.356 503.207C417.493 506.139 412.501 510.378 406.476 513.044C401.633 515.188 396.632 518.131 392.216 521.018C384.941 525.775 376.711 529.478 369.051 533.59C362.29 537.22 355.2 541.453 347.981 544.067C339.227 547.236 330.449 550.605 321.73 553.904C312.646 557.341 303.368 559.265 293.967 561.354C287.737 562.738 280.27 563.449 273.857 563.449C267.812 563.449 261.565 562.833 260.761 555.592L243.328 567.233C245.53 579.616 254.54 602.537 272.54 602.037C286.54 602.537 343.599 597.697 355.664 594.56C363.837 592.435 372.093 590.002 380.022 587.08C383.339 585.859 386.909 585.384 390.237 584.17C393.9 582.835 397.332 581.459 401.122 580.474C414.262 577.058 427.93 571.141 439.478 563.973C444.019 561.155 447.971 558.082 448.267 552.449C448.622 545.712 449.315 538.518 449.315 531.67C449.315 525.343 448.886 519.081 448.791 512.753C449.315 504.738 444.5 506.537 439.478 505.502Z" fill="#F8E3C5"/>
<path d="M445 492.037L445 492.041M445 492.041C445.32 495.549 442.5 499.537 439.478 505.502C444.5 506.537 449.315 504.738 448.791 512.753C448.886 519.081 449.315 525.343 449.315 531.67C449.315 538.518 448.622 545.712 448.267 552.449C447.971 558.082 444.019 561.155 439.478 563.973C427.93 571.141 414.262 577.058 401.122 580.474C397.332 581.459 393.9 582.835 390.237 584.17C386.909 585.384 383.339 585.859 380.022 587.08C372.093 590.002 363.837 592.435 355.664 594.56C343.599 597.697 286.54 602.537 272.54 602.037C254.54 602.537 245.53 579.616 243.328 567.233L260.761 555.592C261.565 562.833 267.812 563.449 273.857 563.449C280.27 563.449 287.737 562.738 293.967 561.354C303.368 559.265 312.646 557.341 321.73 553.904C330.449 550.605 339.227 547.236 347.981 544.067C355.2 541.453 362.29 537.22 369.051 533.59C376.711 529.478 384.941 525.775 392.216 521.018C396.632 518.131 401.633 515.188 406.476 513.044C412.501 510.378 417.493 506.139 423.356 503.207C427.647 501.062 427.8 500.29 432.04 498.037C435.096 496.414 441.412 492.393 445 492.041ZM445 492.041C445.014 492.04 445.027 492.039 445.04 492.037" stroke="#75532C" stroke-width="2" stroke-linecap="round" stroke-linejoin="round"/>
<path d="M271.54 537.537C270.557 537.953 266.087 541.08 265.54 542.037L254.387 538.625C257.883 534.159 263.13 532.191 267.804 529.167C272.443 526.165 277.833 524.769 282.966 522.822C285.754 521.765 287.596 520.591 290.096 519.185C292.61 517.771 295.7 517.263 297.925 515.78C299.722 514.905 302.359 512.335 304.074 511.563C306.502 510.471 308.567 509.284 310.863 507.941C312.746 506.841 314.6 505.699 316.56 504.738C318.213 503.928 319.444 502.638 321.02 501.716L318.999 515.386C314.754 517.558 311.906 520.202 307.5 522.037C305.486 522.877 304.635 523.584 302.54 524.037C299.24 524.509 290.667 528.367 287.71 529.923C283.594 532.089 281.733 531.585 277.54 533.59C275.979 534.337 273.04 536.903 271.54 537.537Z" fill="#F8E3C5" stroke="#75532C" stroke-width="2" stroke-linecap="round" stroke-linejoin="round"/>
<path d="M295.92 414.15C288.436 418.097 281.31 422.473 275.007 428.146L268.782 420.866C270.742 417.598 273.322 414.687 276.026 411.984C281.695 406.315 289.171 403.161 295.702 398.715C302.824 393.866 310.895 390.36 318.508 386.393C319.453 385.9 320.263 385.2 321.256 384.791C322.432 384.307 323.697 384.29 324.878 383.699L345.373 383.99C342.872 386.795 339.901 388.589 336.946 390.87C332.951 393.954 328.838 396.484 324.441 398.951C319.512 401.718 314.307 403.891 309.334 406.56C304.804 408.99 300.466 411.751 295.92 414.15Z" fill="#F8E3C5" stroke="#75532C" stroke-width="2" stroke-linecap="round" stroke-linejoin="round"/>
<path d="M293.335 328.494C289.027 330.012 284.543 332.147 280.758 334.737L271.476 325.309C275.862 323.255 280.377 321.859 284.981 320.394C290.888 318.515 296.698 316.344 302.691 314.679C306.878 313.516 311.002 312.111 315.177 310.893C317.498 310.216 319.933 309.989 322.221 309.255C326.193 307.981 330.139 306.461 333.87 304.595L353.436 312.367C342.281 315.953 330.628 318.813 319.2 321.414C310.475 323.399 301.785 325.516 293.335 328.494Z" fill="#F8E3C5" stroke="#75532C" stroke-width="2" stroke-linecap="round" stroke-linejoin="round"/>
<path d="M315.013 567.731C313.861 573.493 312.525 580.392 307.987 584.567C306.739 585.716 305.34 587.155 303.546 587.061C301.701 586.964 300.954 582.208 300.616 580.854C300.157 579.019 298.674 571.432 303.036 574.174C305.897 575.972 308.661 578.385 310.281 581.345C311.534 583.637 312.742 585.942 313.975 588.244C314.454 589.138 314.839 590.439 315.668 590.992" stroke="#75532C" stroke-width="4" stroke-linecap="round"/>
<path d="M307.15 569.369C307.441 567.767 308.984 566.078 309.844 564.709C310.178 564.177 311.16 562.318 311.409 562.816" stroke="#75532C" stroke-width="4" stroke-linecap="round"/>
<path d="M324.268 566.927C328.736 569.305 331.527 573.075 332.571 578.172C332.73 578.949 335.043 587.72 334.306 588.008C332.09 588.874 331.662 582.478 331.575 581.557C331.291 578.555 332.529 575.26 333.397 572.408C333.987 570.471 334.737 568.608 335.436 566.712C335.713 565.962 335.746 565.045 336.213 564.481" stroke="#75532C" stroke-width="4" stroke-linecap="round"/>
<path d="M345.094 561.198C350.28 564.576 353.879 571.082 355.131 577.012C355.45 578.52 354.885 581.9 353.064 582.285C350.532 582.82 349.897 570.382 350.147 569.005C350.473 567.21 351.424 565.706 352.053 564.026C352.675 562.366 352.915 560.603 353.272 558.876C353.537 557.6 353.783 556.298 353.83 555" stroke="#75532C" stroke-width="4" stroke-linecap="round"/>
<path d="M374.387 553.746C371.21 550.922 365.214 551.314 365.214 556.476C365.214 559.564 365.412 561.424 367.161 564.048C368.491 566.042 369.877 565.024 370.783 563.21C371.921 560.935 370.325 560.754 369.473 562.41C368.224 564.839 368.169 568.183 369.145 570.709C369.613 571.92 370.03 572.491 371.093 573.221C372.295 574.048 372.899 573.025 373.914 572.166C374.895 571.336 375.644 570.353 376.353 569.29C377.013 568.3 377.191 566.996 377.991 566.196" stroke="#75532C" stroke-width="4" stroke-linecap="round"/>
<path d="M379.214 547.658C380.772 547.435 382.08 546.551 383.546 546.093C384.556 545.777 385.418 546.349 386.349 546.602C390.005 547.599 392.146 552.506 394.084 555.339C394.779 556.355 395.362 557.168 396.196 558.106C396.866 558.859 397.995 559.475 398.526 560.272C399.363 561.527 401.918 561.287 402.475 562.401" stroke="#75532C" stroke-width="4" stroke-linecap="round"/>
<path d="M391.664 553.228C391.273 557.869 390.353 562.662 390.353 567.316" stroke="#75532C" stroke-width="4" stroke-linecap="round"/>
<path d="M405.182 542.999C405.03 547.574 405.52 551.935 408.479 555.595C409.761 557.18 410.727 558.15 412.456 557.555C417.496 555.821 415.045 549.565 413.51 545.103C412.374 541.802 410.448 537.442 406.88 538.67C405.582 539.117 403.927 538.462 404.246 540.501C404.62 542.888 404.653 545.292 405.045 547.623" stroke="#75532C" stroke-width="4" stroke-linecap="round"/>
<path d="M429.286 529.25C427.617 528.116 426.279 526.346 424.397 527.701C423.194 528.567 421.833 529.642 421.109 530.992C420.522 532.086 420.63 533.689 420.737 534.913C420.977 537.634 421.624 540.685 423.958 542.271C424.552 542.675 425.263 543.211 426 543.199C427.895 543.167 428.747 541.966 429.326 540.229C429.717 539.056 429.865 537.41 431.257 537.058C432.258 536.806 432.942 538.16 433.402 538.903C434.03 539.915 434.675 541.254 434.641 542.481C434.617 543.343 434.597 544.222 434.455 545.071C434.336 545.78 434.427 546.703 434.094 547.345C433.756 547.997 432.772 547.996 432.14 548.131C431.344 548.3 429.984 548.573 429.478 547.687" stroke="#75532C" stroke-width="4" stroke-linecap="round"/>
<defs>
<linearGradient id="paint0_linear_159_209" x1="463.097" y1="160.136" x2="407.719" y2="278.548" gradientUnits="userSpaceOnUse">
<stop stop-color="#F0F0F0"/>
<stop offset="1" stop-color="#9B9B9B"/>
</linearGradient>
<linearGradient id="paint1_linear_159_209" x1="434.986" y1="134.24" x2="418.957" y2="263.976" gradientUnits="userSpaceOnUse">
<stop stop-color="#F0F0F0"/>
<stop offset="1" stop-color="#9B9B9B"/>
</linearGradient>
<linearGradient id="paint2_linear_159_209" x1="468.5" y1="97.5374" x2="417.965" y2="238.11" gradientUnits="userSpaceOnUse">
<stop stop-color="white"/>
<stop offset="1" stop-color="#999898"/>
</linearGradient>
<linearGradient id="paint3_linear_159_209" x1="155.173" y1="160.173" x2="210.551" y2="278.586" gradientUnits="userSpaceOnUse">
<stop stop-color="#F0F0F0"/>
<stop offset="1" stop-color="#9B9B9B"/>
</linearGradient>
<linearGradient id="paint4_linear_159_209" x1="183.284" y1="134.278" x2="199.313" y2="264.014" gradientUnits="userSpaceOnUse">
<stop stop-color="#F0F0F0"/>
<stop offset="1" stop-color="#9B9B9B"/>
</linearGradient>
<linearGradient id="paint5_linear_159_209" x1="149.77" y1="97.5749" x2="200.305" y2="238.147" gradientUnits="userSpaceOnUse">
<stop stop-color="white"/>
<stop offset="1" stop-color="#999898"/>
</linearGradient>
<linearGradient id="paint6_linear_159_209" x1="310" y1="200.787" x2="310" y2="229.787" gradientUnits="userSpaceOnUse">
<stop offset="0.119871" stop-color="#FFE550"/>
<stop offset="0.475617" stop-color="#A38A00"/>
</linearGradient>
<linearGradient id="paint7_linear_159_209" x1="356" y1="204.287" x2="264" y2="617.287" gradientUnits="userSpaceOnUse">
<stop offset="0.0766387" stop-color="#E3C410"/>
<stop offset="0.267469" stop-color="#FEE559"/>
<stop offset="0.485885" stop-color="#FDF27B"/>
<stop offset="0.721614" stop-color="#FFE345"/>
<stop offset="0.934434" stop-color="#E4B700"/>
</linearGradient>
</defs>
</svg>
